<?xml version="1.0" encoding="UTF-8"?>
<!DOCTYPE svg PUBLIC "-//W3C//DTD SVG 1.1//EN" "http://www.w3.org/Graphics/SVG/1.1/DTD/svg11.dtd">
<!-- Creator: CorelDRAW X7 -->
<svg xmlns="http://www.w3.org/2000/svg" xml:space="preserve" width="1024px" height="1024px" version="1.1" style="shape-rendering:geometricPrecision; text-rendering:geometricPrecision; image-rendering:optimizeQuality; fill-rule:evenodd; clip-rule:evenodd"
viewBox="0 0 1024 1024"
 xmlns:xlink="http://www.w3.org/1999/xlink">
 <defs>
  <style type="text/css">
   <![CDATA[
    .str0 {stroke:#DFDFDF;stroke-width:0.438672}
    .fil5 {fill:none}
    .fil2 {fill:#B1B2AE}
    .fil1 {fill:silver}
    .fil0 {fill:#DFDFDF}
    .fil6 {fill:#FEFEFE;fill-rule:nonzero}
    .fil4 {fill:#332C2B;fill-rule:nonzero}
    .fil3 {fill:#B1B2AE;fill-rule:nonzero}
   ]]>
  </style>
 </defs>
 <g id="图层_x0020_1">
  <metadata id="CorelCorpID_0Corel-Layer"/>
  <g id="_1344364124672">
   <path class="fil0 str0" d="M678 208c6,6 3,88 3,102 0,11 1,101 -1,104l-336 0 -1 -203c2,-8 16,-5 29,-5l272 0c10,0 27,-3 34,2zm-346 221l359 0c-2,-36 0,-78 0,-115 0,-18 0,-37 0,-56 0,-15 1,-45 -1,-58 -7,-8 -17,-5 -30,-5l-299 0c-12,0 -26,-4 -28,9 -3,15 2,189 -1,225z"/>
   <path class="fil1" d="M728 430c-12,-2 -25,-1 -37,-1l-359 0c-6,0 -27,-1 -32,0 -8,3 -13,15 -5,22 6,6 51,3 63,3 112,0 225,0 337,0 17,0 37,4 38,-12 0,-7 -4,-9 -5,-12z"/>
   <path class="fil2" d="M531 361c8,-2 6,0 12,1 9,1 8,-10 -4,-11 -7,-1 -8,1 -13,2 -8,1 -7,-1 -13,-3 -12,-2 -14,5 -23,3 -8,-2 -12,-8 -21,-1 -8,5 -7,14 5,8 6,-3 13,4 23,3 4,0 7,-3 11,-3 10,-1 4,5 23,1z"/>
   <path class="fil3" d="M466 292l9 -10c2,-1 2,-1 3,-1 1,0 2,0 3,1 1,1 1,2 1,3 0,0 -1,1 -2,2l-10 10 10 10c1,1 2,2 2,3 0,1 0,1 -1,2 -1,1 -2,2 -3,2 -1,0 -1,-1 -3,-2l-10 -10 -9 10c-2,1 -2,2 -3,2 -1,0 -2,-1 -3,-2 -1,-1 -1,-1 -1,-2 0,-1 0,-2 2,-3l10 -10 -10 -10c-2,-1 -2,-2 -2,-2 0,-1 0,-2 1,-3 1,-1 2,-1 3,-1 1,0 1,0 3,1l10 10z"/>
   <path class="fil3" d="M548 292l10 -10c1,-1 2,-1 2,-1 1,0 2,0 3,1 1,1 1,2 1,3 0,0 0,1 -1,2l-10 10 10 10c1,1 1,2 1,3 0,1 0,1 -1,2 -1,1 -2,2 -3,2 0,0 -1,-1 -2,-2l-10 -10 -10 10c-1,1 -2,2 -3,2 -1,0 -2,-1 -2,-2 -1,-1 -2,-1 -2,-2 0,-1 1,-2 2,-3l10 -10 -10 -10c-1,-1 -2,-2 -2,-2 0,-1 1,-2 2,-3 0,-1 1,-1 2,-1 1,0 2,0 3,1l10 10z"/>
  </g>
  <path class="fil4" d="M387 593l0 -11 71 0 0 11 -30 0c-1,4 -1,9 -2,14l37 0 0 11 -39 0 0 3 10 0 0 21c-1,4 1,6 6,6l4 0c4,0 7,-2 7,-6 1,-3 1,-6 1,-10 5,1 9,3 12,3 0,6 -1,10 -2,14 -1,7 -6,10 -15,10l-11 0c-10,0 -15,-4 -14,-14l0 -18c-6,14 -16,25 -33,35 -3,-4 -6,-7 -9,-10 18,-10 29,-22 32,-34l-31 0 0 -11 33 0c0,-5 1,-9 1,-14l-28 0z"/>
  <path id="1" class="fil4" d="M494 642c-1,-2 -4,-5 -7,-8l0 27 -12 0 0 -69 31 0 0 -14 12 0c0,4 0,6 0,8 0,2 0,4 0,6l30 0 0 53c0,10 -4,15 -14,15 -5,0 -10,0 -15,0 -1,-4 -2,-8 -3,-12 4,0 8,0 13,0 5,1 7,-2 7,-7l0 -8 -8 7c-5,-4 -10,-10 -16,-15 -4,5 -9,11 -18,17zm-7 -39l0 29c13,-7 19,-17 19,-29l-19 0zm49 0l-18 0c-1,4 -1,8 -2,11 8,6 15,12 20,17l0 -28z"/>
  <path id="2" class="fil4" d="M572 661l0 -24c-3,1 -6,3 -9,4 -2,-4 -3,-7 -5,-10 16,-6 29,-13 39,-24l13 0 -2 3c9,9 21,15 35,19 -1,4 -3,8 -4,11 0,0 0,0 -1,0 -4,-2 -6,-3 -8,-4l0 25 -12 0 0 -4 -35 0 0 4 -11 0zm-10 -58l0 -17 33 0c-1,-3 -1,-6 -2,-9l14 -1c0,1 0,2 0,3 1,3 1,5 2,7l31 0 0 17 -11 0 0 -8 -56 0 0 8 -11 0zm21 35l0 10 35 0 0 -10 -35 0zm53 -19c-10,-5 -20,-10 -31,-15l6 -7c9,4 19,8 31,13l-6 9zm-70 0c-2,-3 -4,-6 -6,-9 11,-4 21,-8 30,-13l6 7c-10,6 -20,11 -30,15zm35 -2c-5,4 -10,8 -15,12l30 0c-5,-3 -10,-7 -15,-12z"/>
  <path class="fil4" d="M318 745l-6 0c-8,-12 -12,-19 -12,-20 -1,-1 -2,-2 -2,-3l0 0c0,1 0,3 0,5l0 18 -6 0 0 -29 7 0c8,12 12,19 12,19 1,2 2,3 2,3l0 0c0,-1 0,-3 0,-4l0 -18 5 0 0 29z"/>
  <path id="1" class="fil4" d="M334 723c7,1 11,4 11,12 0,7 -4,11 -11,11 -7,0 -11,-4 -11,-11 0,-7 4,-11 11,-12zm0 19c4,0 6,-3 6,-7 0,-5 -2,-7 -6,-7 -3,0 -5,2 -5,7 0,4 2,7 5,7z"/>
  <path id="2" class="fil4" d="M381 730l-6 1c-1,-2 -2,-3 -5,-3 -4,0 -5,2 -6,7 0,4 2,7 6,7 3,0 5,-2 5,-5l6 1c-1,5 -5,8 -11,8 -7,0 -11,-4 -11,-11 0,-8 4,-11 11,-12 5,1 9,3 11,7z"/>
  <path id="3" class="fil4" d="M394 723c8,1 11,4 12,12 -1,7 -5,11 -12,11 -7,0 -11,-4 -11,-11 0,-7 4,-11 11,-12zm0 19c4,0 6,-3 6,-7 0,-5 -2,-7 -6,-7 -3,0 -5,2 -5,7 0,4 2,7 5,7z"/>
  <path id="4" class="fil4" d="M430 745l-6 0 0 -12c1,-4 -1,-5 -4,-5 -3,0 -5,2 -5,5l0 12 -5 0 0 -21 5 0 0 3c2,-2 4,-3 7,-4 6,0 8,3 8,9l0 13z"/>
  <path id="5" class="fil4" d="M442 716l0 8 5 0 0 4 -5 0 0 10c0,3 1,4 3,4 0,0 1,-1 2,-1l1 4c-2,1 -3,1 -5,1 -4,0 -7,-2 -6,-6l0 -12 -4 0 0 -4 4 0 0 -7 5 -1z"/>
  <path id="6" class="fil4" d="M466 739l6 0c-2,5 -5,7 -11,7 -8,0 -11,-4 -12,-11 1,-7 4,-11 11,-12 8,0 12,4 12,12 0,0 0,1 0,1l-17 0c0,4 2,6 6,6 3,0 4,-1 5,-3zm-11 -6l11 0c0,-4 -2,-6 -5,-6 -4,0 -6,2 -6,6z"/>
  <path id="7" class="fil4" d="M496 745l-5 0 0 -12c0,-4 -2,-5 -5,-5 -3,0 -4,2 -5,5l0 12 -5 0 0 -21 5 0 0 3c2,-2 5,-3 8,-4 5,0 7,3 7,9l0 13z"/>
  <path id="8" class="fil4" d="M508 716l0 8 5 0 0 4 -5 0 0 10c0,3 1,4 3,4 1,0 1,-1 2,-1l1 4c-1,1 -3,1 -5,1 -4,0 -6,-2 -6,-6l0 -12 -4 0 0 -4 4 0 0 -7 5 -1z"/>
  <path id="9" class="fil4" d="M559 724l-7 21 -6 0c-2,-9 -4,-13 -4,-14 0,-1 0,-2 0,-2l0 0c0,1 0,2 -1,2 0,1 -1,5 -4,14l-5 0 -8 -21 6 0c3,10 4,15 4,15 0,0 0,0 0,1 1,1 1,1 1,1l0 0c0,0 0,0 0,-1 0,-1 0,-1 0,-1 0,0 2,-5 4,-15l5 0c3,9 4,14 4,15 1,1 1,2 1,2l0 0c0,0 0,0 0,-1 0,-1 0,-1 0,-1 1,-1 2,-6 5,-15l5 0z"/>
  <path id="10" class="fil4" d="M583 745l-5 0c-1,-1 -1,-2 -1,-3 -2,2 -5,4 -9,4 -5,0 -7,-2 -7,-6 0,-4 3,-6 8,-7 4,-1 6,-1 8,-2 0,-3 -1,-4 -5,-4 -3,0 -5,1 -5,4l-5 -1c1,-5 4,-7 10,-7 7,0 11,3 10,9 0,2 0,5 0,9 0,2 1,3 1,4zm-6 -9l0 -2c-1,1 -3,1 -6,2 -3,0 -5,2 -5,3 0,2 1,3 4,3 4,0 7,-2 7,-6z"/>
  <path id="11" class="fil4" d="M605 729l-5 1c-1,-2 -2,-3 -4,-3 -3,0 -4,1 -4,3 0,1 1,2 4,2 1,0 3,1 4,1 4,1 6,3 6,6 0,5 -3,7 -9,7 -7,0 -10,-2 -11,-7l5 0c1,2 2,3 5,3 3,0 5,-1 5,-3 0,-1 -2,-2 -5,-3 0,0 -1,0 -2,0 -1,0 -1,-1 -2,-1 -4,-1 -5,-2 -5,-5 0,-4 3,-6 8,-7 6,0 9,2 10,6z"/>
  <path id="12" class="fil4" d="M627 721l0 3 5 0 0 4 -5 0 0 17 -6 0 0 -17 -3 0 0 -4 3 0 0 -3c0,-5 3,-7 8,-7 1,0 3,0 5,1l-2 4c0,-1 -1,-1 -2,-1 -2,0 -3,1 -3,3z"/>
  <path id="13" class="fil4" d="M645 723c7,1 10,4 11,12 -1,7 -4,11 -12,11 -7,0 -10,-4 -11,-11 1,-7 4,-11 12,-12zm-1 19c4,0 6,-3 6,-7 0,-5 -2,-7 -6,-7 -3,0 -5,2 -5,7 0,4 2,7 5,7z"/>
  <path id="14" class="fil4" d="M680 745l-5 0 0 -3c-2,2 -4,4 -7,4 -6,0 -8,-3 -8,-9l0 -13 5 0 0 13c0,3 2,5 5,5 3,-1 4,-2 5,-6l0 -12 5 0 0 21z"/>
  <path id="15" class="fil4" d="M706 745l-6 0 0 -12c0,-4 -1,-5 -4,-5 -3,0 -5,2 -5,5l0 12 -6 0 0 -21 6 0 0 3c2,-2 4,-3 7,-4 5,0 8,3 8,9l0 13z"/>
  <path id="16" class="fil4" d="M726 714l5 0 0 31 -5 0 0 -3c-2,3 -4,4 -7,4 -6,0 -9,-4 -9,-11 0,-8 3,-12 9,-12 3,1 5,2 7,4l0 -13zm0 21l0 -2c-1,-3 -2,-5 -5,-5 -4,0 -6,2 -6,7 0,4 2,7 6,7 3,0 5,-3 5,-7z"/>
  <rect class="fil5" width="1024" height="1024"/>
  <path class="fil6" d="M478 441l3 -4c-1,0 -2,0 -2,0 -1,0 -2,0 -2,1 -1,0 -1,0 -2,0 0,0 -1,1 -1,1 0,0 0,0 0,0 0,-1 0,-1 0,-1 0,0 0,0 1,-1 0,0 0,-1 1,-1 2,-1 4,-2 6,-2 2,0 3,1 4,2 0,0 0,0 1,1 0,0 0,1 0,1 0,1 0,2 -1,3 0,1 -1,1 -2,2 0,0 -1,1 -2,1 -1,1 -2,1 -4,1 0,0 0,0 -1,0l-1 1c0,0 0,0 0,1 0,0 0,0 0,0 0,0 0,1 0,1 -1,0 -1,0 -1,0 0,1 0,1 0,1 0,0 0,0 0,0 -1,0 -1,0 -1,0 0,0 0,-1 0,-1 0,0 0,-1 1,-1 0,-1 0,-2 1,-3 0,0 -1,0 -1,0 0,0 0,-1 0,-1 0,0 0,-1 1,-1 0,0 1,0 2,-1zm1 1l-1 1c0,0 1,0 1,0 0,0 0,0 0,0 2,0 3,-1 3,-1 1,0 2,-1 2,-1 1,0 1,-1 1,-1 1,-1 1,-1 1,-2 0,0 0,0 -1,-1 0,0 -1,0 -1,0 -1,0 -2,0 -3,0 0,0 0,0 0,0 0,0 0,1 0,1l-2 3 1 0c0,0 1,0 1,0 0,0 -1,0 -1,0l-1 1z"/>
  <path id="1" class="fil6" d="M494 444l0 1c-1,0 -1,1 -2,1 0,1 0,1 -1,1 0,0 0,0 -1,0 0,0 0,0 0,-1 0,0 0,-1 0,-1 0,-1 1,-2 2,-3 -1,1 -1,1 -1,1 -1,0 -1,0 -1,1 0,0 0,0 -1,0 0,1 0,1 -1,2 0,0 0,1 -1,1 0,0 0,0 0,0 0,0 -1,-1 -1,-2 0,0 0,-1 0,-1 1,-1 1,-2 1,-2 2,-2 3,-3 3,-5 1,-1 2,-2 2,-2 1,-1 1,-1 2,-1 0,0 0,0 0,0 0,0 0,0 0,0 0,1 0,1 0,1 0,1 -1,1 -1,2 -1,1 -1,2 -1,2 -1,0 -1,1 -2,1 0,1 -1,2 -1,2 0,1 -1,1 -1,2l0 1c1,-1 1,-2 2,-3 1,0 1,-1 2,-1 0,0 0,0 1,0 0,0 0,0 0,0 0,0 0,0 0,0 0,1 0,1 0,1 0,0 -1,1 -1,1 0,1 0,1 0,1 -1,0 -1,1 -1,1 0,0 0,0 1,0 0,0 1,0 2,-1z"/>
  <path id="2" class="fil6" d="M500 444l0 1c0,0 -1,0 -1,1 0,0 0,0 -1,0 -1,1 -2,1 -2,1 -1,0 -1,0 -1,0 -1,0 -1,-1 -1,-1 0,-1 0,-1 0,-2 0,0 0,0 0,-1 0,-1 1,-1 1,-1 1,-1 1,-1 2,-2 0,0 1,0 1,0 0,0 1,0 1,0 0,0 0,0 0,1 0,0 0,0 0,0 0,0 0,0 0,0 0,0 1,1 1,1 0,0 -1,1 -1,1 0,1 0,1 0,2l0 0 0 0c0,0 0,0 0,0 0,0 1,0 1,-1 0,0 0,0 0,0zm-2 -3c0,1 -1,1 -1,1 -1,1 -1,1 -1,1 0,0 -1,1 -1,1 0,1 0,1 0,1 0,1 0,1 1,1 0,0 1,0 1,-1 0,0 0,0 0,-1 0,0 0,-1 0,-1 1,0 1,-1 1,-2z"/>
  <path id="3" class="fil6" d="M504 439l0 0c0,-1 1,-1 1,-1 0,-1 1,-1 1,-1 0,0 1,0 1,0 0,1 -1,1 -1,1 0,0 0,1 0,1 0,0 0,0 0,0 0,0 0,0 1,0 -1,1 -1,2 -2,2 0,0 0,0 0,0 0,0 -1,0 -1,0 0,0 0,0 0,0 -1,1 -1,1 -1,2 0,0 -1,1 -1,1 0,0 0,1 0,1 0,0 0,1 1,1 0,0 0,0 1,-1 0,0 1,0 1,-1l0 1c-1,2 -3,3 -4,3 0,0 0,0 0,-1 -1,0 -1,0 -1,-1 0,0 0,0 1,0 0,-1 0,-1 0,-2 0,0 0,0 0,0 0,0 0,0 0,0 -1,0 -1,1 -1,1 0,0 0,0 0,0l0 -1c1,0 2,-1 3,-3 0,0 -1,0 -1,0 0,0 0,0 0,0 0,0 -1,0 -1,0 0,0 0,0 0,0 0,0 0,0 0,0 0,0 0,0 0,0 0,0 0,0 0,-1 0,0 1,0 1,-1 0,0 0,0 1,0 0,0 0,0 1,0z"/>
  <path id="4" class="fil6" d="M512 444l0 1c-1,0 -1,0 -1,1 -1,0 -1,0 -2,0 0,1 -1,1 -2,1 0,0 -1,0 -1,0 0,0 0,-1 -1,-1 0,-1 0,-1 0,-2 0,0 0,0 1,-1 0,-1 0,-1 1,-1 0,-1 1,-1 1,-2 1,0 1,0 2,0 0,0 0,0 0,0 0,0 1,0 1,1 0,0 -1,0 -1,0 1,0 1,0 1,0 0,0 0,1 0,1 0,0 0,1 0,1 0,1 -1,1 -1,2l0 0 0 0c1,0 1,0 1,0 0,0 0,0 0,-1 0,0 0,0 1,0zm-2 -3c-1,1 -1,1 -2,1 0,1 -1,1 -1,1 0,0 0,1 0,1 0,1 -1,1 -1,1 0,1 1,1 1,1 1,0 1,0 2,-1 0,0 0,0 0,-1 0,0 0,-1 0,-1 0,0 0,-1 1,-2z"/>
  <path id="5" class="fil6" d="M520 445l-4 2c-1,2 -2,3 -2,4 -1,1 -2,1 -2,1 0,0 0,0 0,0 0,-1 0,-1 0,-2 1,0 1,-1 1,-1 0,0 1,0 1,-1 0,0 0,0 1,0 0,-1 0,-1 0,-1 1,-1 2,-2 2,-3 -1,1 -1,1 -2,2 0,0 -1,0 -1,1 0,0 -1,0 -1,0 0,0 -1,0 -1,-1 0,0 0,-1 0,-2 0,0 0,0 0,0 0,-1 0,-1 0,-1 1,-1 1,-1 1,-1 1,-1 1,-1 2,-1 1,-1 2,-1 2,-1 1,0 1,0 1,0 0,1 -1,1 -2,1 0,1 -1,1 -1,1 -1,1 -1,1 -2,2 0,0 0,1 0,1 0,0 0,0 0,0 0,0 0,0 0,0 1,0 1,0 1,0 0,0 1,0 1,-1 1,0 1,-1 1,-1 1,-1 1,-1 2,-1 0,-1 0,-1 0,-1 0,0 1,0 1,0 0,0 0,1 0,1 0,0 0,0 -1,1 0,1 0,2 -1,3l3 -2 0 1z"/>
  <path id="6" class="fil6" d="M519 445l0 -1c0,0 1,-1 1,-1 0,0 0,0 -1,0 0,0 0,0 0,-1 0,0 0,0 1,-1 0,0 0,0 0,-1 1,0 1,0 1,0 0,0 0,0 0,0 1,0 1,0 1,0 0,0 -1,0 -1,1 2,-1 2,-1 3,-1 0,0 0,0 0,0 0,0 0,1 0,1 0,0 1,0 1,0 0,1 -1,1 -1,1 0,0 0,0 0,1 -1,0 -1,0 -1,1 0,0 -1,1 -1,1 0,0 1,0 1,0 0,0 1,0 2,-1l0 1c0,0 -1,1 -1,1 -1,0 -1,1 -1,1 0,0 -1,0 -1,0 0,0 -1,0 -1,0 0,0 0,-1 0,-1 0,-1 0,-1 0,-1 0,-1 1,-1 1,-1 0,-1 0,-1 1,-2 0,0 -1,0 -1,0 0,0 0,0 -1,1 0,0 0,0 0,0 -1,0 -1,1 -2,2z"/>
  <path id="7" class="fil6" d="M526 442c1,-1 2,-1 3,-2 1,0 2,0 2,0 1,0 1,0 1,0 0,0 0,0 0,0 0,0 0,0 0,1 0,0 0,0 0,0 0,0 0,0 0,0 0,0 0,0 0,0 0,1 0,1 0,1 0,0 0,0 0,0 0,0 0,1 -1,1 0,0 0,1 0,1 0,0 0,0 0,1 0,0 0,0 0,0 1,0 1,0 2,-1l0 1c-1,2 -2,2 -3,2 0,0 -1,0 -1,0 0,0 0,0 0,-1 0,0 0,-1 1,-2 -1,1 -2,2 -2,3 -1,0 -1,0 -2,0 0,0 0,0 0,0 0,0 -1,-1 -1,-1 0,-1 0,-1 0,-1 0,-1 0,-1 0,-1 0,0 0,-1 0,-1 1,0 1,0 1,-1zm5 -1c-2,1 -3,2 -4,2 0,1 -1,1 -1,2 0,0 0,0 0,0 0,1 1,1 1,1 0,0 0,0 0,-1 1,0 1,0 2,-1 1,-1 1,-2 2,-3z"/>
  <path id="8" class="fil6" d="M533 445l0 -1c1,-1 2,-2 3,-3 0,-1 1,-1 1,-2 1,0 1,-1 1,-1 1,0 1,0 1,0 1,0 1,0 1,0 0,0 0,0 -1,1 0,0 0,0 0,1 -1,0 -1,0 -1,1 -1,0 -1,1 -2,2 1,0 1,-1 2,-1 0,0 0,-1 1,-1 0,0 0,0 1,0 0,0 0,0 1,0 0,0 0,0 0,0 0,0 0,0 0,0 0,0 0,1 0,1 -1,1 -1,1 -1,2 -1,0 -1,1 -2,2 0,0 0,0 1,0 0,0 1,-1 3,-2l0 1c-1,0 -1,1 -2,1 0,0 -1,1 -1,1 -1,0 -1,0 -1,0 0,0 -1,0 -1,0 0,0 0,0 0,0 0,0 0,0 -1,0 0,0 0,0 0,0 0,0 0,0 0,0 -1,0 -1,0 -1,0 0,0 -1,1 -1,1 0,1 0,1 -1,2 0,0 0,1 0,1 -1,0 -1,0 -1,0 0,0 0,0 0,-1 0,0 0,0 0,-1 0,0 1,-1 1,-1 0,-1 0,-1 1,-2 0,0 0,0 0,0 1,-2 2,-4 3,-5 -2,2 -3,3 -4,4zm4 0c1,0 1,-1 2,-1 0,-1 0,-1 0,-1 0,-1 0,-1 0,-1 0,0 -1,0 -2,1 0,1 -1,1 -1,2 0,0 0,0 1,0 0,0 0,0 0,0z"/>
  <path id="9" class="fil6" d="M549 444l0 1c-1,0 -1,1 -1,1 -1,1 -1,1 -2,1 0,0 0,0 0,0 -1,0 -1,0 -1,-1 0,0 0,-1 0,-1 1,-1 1,-2 2,-3 -1,1 -1,1 -1,1 0,0 -1,0 -1,1 0,0 0,0 0,0 -1,1 -1,1 -2,2 0,0 0,1 0,1 -1,0 -1,0 -1,0 0,0 -1,-1 -1,-2 0,0 1,-1 1,-1 0,-1 0,-2 1,-2 1,-2 2,-3 3,-5 0,-1 1,-2 2,-2 0,-1 1,-1 1,-1 0,0 0,0 0,0 0,0 1,0 1,0 0,1 -1,1 -1,1 0,1 0,1 -1,2 -1,1 -1,2 -1,2 -1,0 -1,1 -1,1 -1,1 -1,2 -2,2 0,1 -1,1 -1,2l0 1c1,-1 1,-2 2,-3 1,0 1,-1 2,-1 0,0 1,0 1,0 0,0 0,0 0,0 0,0 1,0 1,0 0,1 0,1 -1,1 0,0 0,1 -1,1 0,1 0,1 0,1 0,0 -1,1 -1,1 0,0 1,0 1,0 0,0 1,0 2,-1z"/>
 </g>
</svg>
